<?xml version="1.0" encoding="UTF-8"?>
<svg xmlns="http://www.w3.org/2000/svg" viewBox="0 0 330 462" width="330" height="462">
<path d="M100.75 94.44C102.49 95.72 102.46 97.78 103.1 99.68C104.92 105.08 106.74 110.28 108.08 115.72C108.72 118.3 110.64 121.33 108.25 123.41C104.35 117.36 103.05 109.51 100.79 102.91C100.01 100.64 98.99 96.31 100.75 94.44ZM127.75 95.17C130.89 95.95 129.06 98.55 128.73 100.87C128.2 104.61 126.51 115.32 124.25 117.91C123.13 116.25 123.75 114.17 123.9 112.25C124.27 107.46 124.19 98.83 127.75 95.17ZM69.75 105.2C78.82 109.47 85.33 118.54 92.43 125.31C94.2 127 99.49 131.3 97.75 133.86C94.5 133.54 92.25 129.45 89.96 127.3C84.94 122.58 80.17 117.8 74.99 113.27C72.86 111.4 69.24 109.31 68.11 106.75C68.66 106.23 69.2 105.72 69.75 105.2ZM119.5 384.12C116.67 384.12 113.83 384.13 111 384.13C104.13 383.47 97.76 382.57 91.48 379.74C71.15 370.58 62.99 347.18 63.67 326.26C63.9 319.12 64.58 311.55 66.32 304.65C67.3 300.8 69.29 296.31 69.01 292.25C68.87 290.12 64.3 282.31 63.32 278.86C60.58 269.21 60.65 256.07 62.36 246.25C67.37 217.38 78.94 191.03 97.53 168.28C100.76 164.32 103.41 159.99 106.96 156.22C114.77 147.92 123.9 140.75 133.45 134.71C142.37 129.06 148.43 124.63 158.39 120.67C160.82 119.7 163.12 118.1 165.6 117.31C182.33 111.99 206.66 107.36 223.53 114.26C255.06 127.14 261.28 163.7 259.91 194.25C259.62 200.68 257.92 206.96 257.02 213.25C254.8 228.72 249.5 245.15 243.19 259.39C241.86 262.4 241.14 265.6 239.81 268.6C238.49 271.58 236.45 274.4 235.24 277.43C234.56 279.16 234.76 280.92 233.9 282.65C217.04 317.02 184.07 361.08 147.34 376.12C141.76 378.41 136.58 381.33 130.66 382.83C127.1 383.73 123.15 383.56 119.5 384.12ZM77.25 301.73C75.82 301.99 75.29 307.58 75.02 309.75C73.96 318.28 73.55 326.36 74.79 334.89C75.43 339.35 75.7 343.83 77.22 348.09C83.8 366.46 100.11 378.66 120.25 376.99C139.97 375.36 161 358.88 174.68 345.43C194.65 325.78 211.27 301.02 222.35 275.63C223.83 272.22 225.98 269.08 227.53 265.74C229.55 261.39 230.68 256.73 232.6 252.35C233.55 250.16 235.13 247.8 235.75 245.56C236.79 241.84 237.32 237.98 238.44 234.25C240.18 228.44 242.38 222.93 243.71 216.99C244.71 212.48 244.46 207.61 245.26 203.03C249.28 180.19 248.33 147.04 231.7 129.04C216.06 112.11 191.5 115.15 172.13 122.83C126.75 140.83 93.95 181.84 79.74 227.53C75.8 240.21 71.8 256.76 72.2 270.25C72.25 272.19 72.2 281.79 72.75 282.53C75 279.73 75.66 276.53 77.16 273.38C78.18 271.24 79.95 269.52 81.18 267.49C83.92 262.98 85.92 258.75 89.38 254.61C91.83 251.67 92.49 247.59 97.25 248.2C96.36 252.24 93.07 255.79 91.15 259.38C87.24 266.72 84.44 274.61 81.72 282.47C80.52 285.91 77.89 291.52 78.95 295.24C79.59 297.48 82.63 299.85 84.02 301.73C81.76 301.73 79.51 301.73 77.25 301.73ZM88.78 142.25C86.52 143.79 83.88 141.95 81.7 141.1C74.83 138.41 66.42 136.18 61.01 131.25C62.99 129.41 65.49 131.08 67.6 132.19C72.7 134.85 78.45 136.1 83.58 138.65C85.41 139.57 88.38 140.14 88.78 142.25ZM78.75 154.71C78.68 155.53 78.41 156.4 77.56 156.75C76.18 157.33 61.53 157.96 60.25 157.41C60.03 153.67 76.46 153.22 78.75 154.71ZM210.25 176.39C206.19 175.8 200.42 168.43 196.61 166.15C194.11 164.65 191.28 163.27 188.64 162.15C185.82 160.94 181.46 161.05 179.13 159.25C180.67 156.05 185.54 157.28 188.24 158.46C195.21 161.52 200.89 164.29 206.32 169.95C208.02 171.72 211.2 173.77 210.25 176.39ZM214.75 196.1C212.14 194.92 210.26 190.05 208.69 187.54C206.58 184.19 197.93 174.9 194.63 173.14C188.67 169.98 183.57 168.2 177.07 166.7C174.82 166.18 172.56 165.04 170.25 164.89C164.82 164.53 156.41 167.43 152.48 166.75C153.51 161.59 166.16 161.93 170.25 161.98C185.86 162.19 199.92 170.18 209.18 182.59C210.88 184.87 215.89 193.81 214.75 196.1ZM215.82 213.75C211.98 211.78 210.37 204.68 208.66 201.08C204.06 191.42 197.08 181.43 186.66 177.53C177.04 173.93 166.3 171.08 155.78 173.12C154.64 173.34 153.86 174.25 152.78 174.62C151.02 175.22 149.13 174.63 147.39 175.19C143.85 176.32 138.65 179.89 135.05 178.75C138.99 173.86 146.6 172.79 152.23 170.94C170.35 165.02 190.62 171.18 202.95 185.32C208.37 191.54 211.71 198.42 214.13 206.17C214.8 208.32 218.09 212.2 215.82 213.75ZM214.75 237.45C211.51 235.66 210.2 222.3 208.86 218.35C205.18 207.5 196.6 193.47 186.56 187.22C179.23 182.64 168.97 180.02 160.27 181.12C158.01 181.41 155.85 182.5 153.72 182.9C151.3 183.36 149.22 183.28 146.83 184.14C142.15 185.82 134.09 191.32 129.89 191.25C131.03 187.87 135.65 185.48 138.65 183.88C148.03 178.86 158.52 176.13 169.25 176.87C192.55 178.49 210.56 201.99 213.46 223.74C214.04 228.09 215.7 233.05 214.75 237.45ZM211.68 249.75C208.4 249.41 206.35 239.62 206.04 236.75C204.56 222.76 197.75 210.69 188.61 200.14C186.64 197.88 183.5 196.17 180.91 194.77C177.9 193.14 175.57 191.06 172.17 190.15C161.68 187.34 147.17 191.85 137.36 195.15C131.96 196.97 127.56 201.79 122.25 203.43C122.18 198.71 128.46 196.94 131.62 194.86C137.68 190.84 158.19 184.17 165.22 185.15C171.94 186.09 179.95 186.94 185.58 191.2C186.08 191.58 186.09 192.27 186.51 192.72C189.08 195.47 192.34 197.4 194.84 200.39C202.81 209.93 206.64 221.38 209.18 233.18C209.82 236.18 212.11 247.31 211.68 249.75ZM205.25 267.14C201.78 267.56 199.67 254.7 199.11 251.73C197.79 244.62 198.86 236.86 196.87 229.8C194.48 221.34 189.45 212.85 182.85 206.91C179.7 204.08 175.79 202.32 171.97 200.74C156.32 194.25 145.86 200.84 131.9 207.17C127.21 209.29 120.83 217.35 116.2 217.75C118.74 211.08 125 207.58 130.58 203.8C138.61 198.35 154.9 191.38 164.7 193.14C169.13 193.93 172.92 195.99 177 197.71C180.85 199.32 184.44 201.29 187.54 204.22C195.09 211.36 200.74 223.55 201.92 233.76C202.54 239.04 201.95 244.46 202.51 249.75C202.74 252 203.55 254.14 203.84 256.27C204.1 258.23 203.62 260.29 204.01 262.24C204.37 264.03 205.42 265.34 205.25 267.14ZM162.43 203.15C168.02 203.64 173.08 205.71 177.87 208.39C182.34 210.89 191.33 224.02 192.77 228.9C195.45 238 195.69 248.32 196.58 257.73C196.92 261.27 197.12 265.26 198.19 268.62C199.19 271.77 201.9 274.17 200.72 277.75C197.85 277.68 193.07 266.29 192.8 263.25C191.3 246.33 191.88 228.76 178.67 216.07C175.53 213.06 171.79 211.47 167.93 209.76C152.85 203.08 138.49 212.74 126.14 220.39C121.36 223.36 117.58 230.02 112.2 231.75C112.52 227.18 117.53 222.43 120.87 219.62C125.57 215.67 130.03 212.63 135.52 209.74C136.8 209.06 138.07 207.7 139.39 207.22C143.65 205.66 148.28 204.94 152.5 203.43C155.81 203.34 159.12 203.24 162.43 203.15ZM192.25 289.25C187.82 286.68 184.34 276.25 185.19 271.32C185.89 267.23 187.82 258.33 185.25 254.84C183.14 257.47 183.69 267.56 182.76 271.59C180.6 280.99 172.24 294.17 164.85 300.61C155.72 308.58 153.49 311.16 141.38 314.2C137.9 315.07 131.65 317.09 129.56 312.75C131.93 311.01 136.33 312.62 139.22 311.87C144.15 310.6 150.23 307.6 154.44 304.69C170.29 293.75 178.16 275.88 181.22 257.88C182.13 252.58 183.2 245.77 181.77 240.43C181.17 238.22 179.79 236.3 179.16 234.17C178.1 230.57 177.2 227.09 174.71 224.03C168.23 216.09 157.62 212.8 147.91 216.2C142.9 217.96 139.62 221.73 135.44 224.69C131.87 227.23 125.74 230.57 123.24 233.97C120.02 238.33 117.94 246 113.4 249.18C111.39 250.58 110.26 253.55 107.89 251.25C108.87 249.26 110.74 247.62 111.77 245.56C113.68 241.77 114.63 237.92 117.19 234.41C120.99 229.23 126.09 225.06 131.55 221.78C143.77 214.45 150.12 207.03 166.15 212.15C173.17 214.4 178.15 220.63 181.24 227.05C184.43 233.69 187.79 240.82 189.73 247.94C191.29 253.68 189.9 266.83 189.83 273.25C189.78 278.84 193.3 283.95 192.25 289.25ZM174.94 249.5C174.87 248.06 174.81 246.62 174.75 245.18C174.55 246.62 174.35 248.06 174.15 249.5C169.34 265.15 163.41 281.01 150.98 292.72C148.4 295.16 145.17 296.96 142.38 299.15C136.95 303.42 124.3 310.08 119.47 302.25C122.67 301.79 126.41 303.2 129.66 301.9C133.35 300.43 144.87 293.52 147.62 290.86C155.33 283.4 163.89 268.9 167.24 258.9C170.25 249.9 175.07 240.77 168.73 232.01C164.24 225.81 154.68 228.52 150.18 232.93C142.75 240.18 140.65 250.76 135.67 259.41C131.66 266.36 125.53 268.57 120.75 273.79C125.62 274.4 129.89 270.58 133.17 267.4C136.88 263.78 137.86 259.76 140.15 255.39C143.43 249.14 146.56 242.83 150.98 237.24C153.45 234.1 164.15 230.32 166.67 234.55C169.9 239.97 165.84 248.48 164.12 253.82C163.25 256.52 162.76 259.45 161.78 262.1C158.16 271.97 146.44 288.11 137.44 293.66C132.79 296.54 127.32 298.35 121.75 298.05C118.92 297.89 116.02 297.57 116.1 294.25C118.22 294.31 120.62 295.2 122.72 294.94C136.02 293.32 148.21 279.14 154.16 267.87C156.02 264.35 159.72 260.05 159.25 256C156.45 257.18 155.67 262.16 153.73 264.49C146.24 273.53 141.66 281.57 131.18 287.44C126.91 289.84 121.59 293.69 116.25 291.48C115.2 289.74 114.16 287.99 113.11 286.25C115.48 286.12 117.82 286.43 120.17 285.83C121.29 285.54 121.96 284.65 123 284.27C135.54 279.6 143.81 271.55 151.24 260.48C153.23 257.52 155.65 254.76 157.3 251.57C158.91 248.48 158.93 244.76 160.35 241.62C161.09 239.98 162.53 239.22 163.1 237.75C158.7 233.98 151.92 242.83 150.18 246.39C143.13 260.84 139.16 273.17 123.31 280.08C120.69 281.23 118.79 282.81 115.75 282.87C114.26 281.83 112.78 280.79 111.29 279.75C113.29 277.49 116.54 276.5 118 274.75C114.37 273.73 110.88 274.84 107.47 272.25C107.91 265.52 110.95 266.9 112.66 262.57C112.85 262.31 113.05 262.06 113.25 261.8C113.5 261.85 113.75 261.9 114 261.94C118.04 261.84 122.2 256.04 124.26 252.99C131.06 242.9 133.63 230.53 143.67 222.92C148.22 219.47 158.7 215.26 163.12 220.75C157.72 222.46 152.17 222.45 147.11 225.38C137.6 230.9 132.77 249.48 125.63 258.38C123.28 261.3 119.69 264.75 116.45 266.69C114.19 268.05 110.97 268.91 109.55 271.25C111.01 272.6 111.96 271.33 113.68 271.22C120.53 270.78 125.66 265.19 129.5 259.74C137.92 247.77 145.61 217.25 166 226.72C168.07 227.68 170.59 228.96 172.33 230.43C178.81 235.88 178.23 243.31 178.04 251.25C177.64 268.96 169.85 285.57 156.74 297.5C151.08 302.65 145.36 306.61 137.78 308.16C135.15 308.69 132.53 309.68 130.29 307.75C133.19 304.25 143.24 302.65 147.53 299.76C163.2 289.19 168.71 276.79 173.14 259.3C174.02 255.83 175.35 253.3 174.94 249.5ZM114.5 260.54C113.02 260.99 111.38 260.87 110.62 262.25C110.12 262.32 109.61 262.39 109.11 262.45C108.77 261.89 108.43 261.32 108.08 260.75C109.35 258.82 111.11 258.01 112.65 256.4C114.81 254.16 117.05 251.17 118.81 248.58C120.8 245.64 121.91 242.09 123.86 239.14C125.52 236.63 127.54 233.08 130.75 232.7C130.22 235.34 128.29 237.06 127.2 239.4C126.14 241.7 125.74 244.25 124.75 246.56C122.34 252.18 118.78 256.17 114.5 260.54ZM124.31 274.75C121.87 275.75 119.44 276.75 117 277.75C119.33 278.82 123.88 277.52 124.31 274.75ZM132.77 282.75C130.46 283.19 128.28 284.51 127.07 286.75C128.82 286.57 132.37 284.41 132.77 282.75ZM183.25 287.93C184.96 289.43 185.93 291.85 183.75 293.45C181.72 292.03 181.25 289.54 183.25 287.93ZM177.25 289.78C180.67 294.94 175.47 300.36 172.28 304.02C165.92 311.32 158.89 315.58 149.3 317.18C146.05 317.72 143.24 318.95 140.14 317.75C141.68 316.39 145.48 316.58 147.62 315.82C152.59 314.05 157.42 311.44 161.93 308.66C166.6 305.78 171.29 300.46 173.75 295.53C174.75 293.52 175.29 291.01 177.25 289.78Z" fill="#ffffff" fill-rule="evenodd" stroke="#ffffff" stroke-width="0.25" stroke-linejoin="round"/>
<path d="M162.43 203.15C159.12 203.24 155.81 203.34 152.5 203.43C152.58 203.07 152.67 202.71 152.75 202.35C155.98 202.62 159.21 202.88 162.43 203.15ZM174.94 249.5C174.67 249.5 174.41 249.5 174.15 249.5C174.35 248.06 174.55 246.62 174.75 245.18C174.81 246.62 174.87 248.06 174.94 249.5ZM114.5 260.54C114.33 261 114.17 261.47 114 261.94C113.75 261.9 113.5 261.85 113.25 261.8C113.05 262.06 112.85 262.31 112.66 262.57C112.35 262.21 112.05 261.86 111.75 261.5C111.06 262.81 110.71 262.9 109.25 263C109.2 262.82 109.15 262.64 109.11 262.45C109.61 262.39 110.12 262.32 110.62 262.25C111.38 260.87 113.02 260.99 114.5 260.54ZM132.77 282.75C132.37 284.41 128.82 286.57 127.07 286.75C128.28 284.51 130.46 283.19 132.77 282.75ZM111 384.13C113.83 384.13 116.67 384.12 119.5 384.12C119.42 384.24 119.33 384.37 119.25 384.5C116.58 384.5 113.92 384.5 111.25 384.5C111.17 384.38 111.08 384.26 111 384.13Z" fill="#fefefe" fill-rule="evenodd" stroke="#fefefe" stroke-width="0.25" stroke-linejoin="round"/>
</svg>